<?xml version="1.0" encoding="UTF-8" standalone="no"?>
<svg
   version="1.1"
   width="434.15778"
   height="383.21512"
   id="svg33"
   viewBox="0 0 434.15778 383.21512"
   sodipodi:docname="c1a7578491a50923aa955c13f76c545f.cdr"
   xmlns:inkscape="http://www.inkscape.org/namespaces/inkscape"
   xmlns:sodipodi="http://sodipodi.sourceforge.net/DTD/sodipodi-0.dtd"
   xmlns="http://www.w3.org/2000/svg"
   xmlns:svg="http://www.w3.org/2000/svg">
  <defs
     id="defs37" />
  <sodipodi:namedview
     id="namedview35"
     pagecolor="#ffffff"
     bordercolor="#666666"
     borderopacity="1.0"
     inkscape:pageshadow="2"
     inkscape:pageopacity="0.0"
     inkscape:pagecheckerboard="0" />
  <path
     d="M 6.5917,338.50998 424.0884,162.40518 V 35.073883 l 0.1763,0.01 v -2.4944 L 6.4154,208.84278 v 12.3845 l 0.1763,0.01 z M 424.2647,29.401183 V 9.8087835 L 6.4154,186.06228 v 19.5926 z m -0.1763,167.386597 6.3417,0.3511 v -30.5773 -34.9538 -96.182797 -8.6244 V 0.37678349 L 0.25,181.83168 v 26.4238 12.6304 15.8543 111.2761 34.5835 l 6.3417,0.3511 v -37.6097 l 417.4967,-176.1045 z"
     style="fill:#1b1918;fill-rule:evenodd;stroke:#000000;stroke-width:0.5;stroke-linecap:butt;stroke-linejoin:miter;stroke-dasharray:none"
     id="path2" />
  <path
     d="m 292.3046,103.70508 c 13.1895,-4.412697 28.2546,-1.8873 38.9536,7.4025 3.2664,2.8356 6.0182,6.3962 8.1071,10.6623 1.7,3.4724 2.9091,7.1276 3.4446,10.8068 2.0523,14.0638 -3.9309,27.7343 -18.6462,31.4658 -5.245,1.3304 -9.9122,0.3533 -14.7164,-2.5434 l -0.3815,-0.2483 -0.3646,-0.2566 -0.354,-0.2577 -0.3365,-0.2707 -0.3242,-0.2762 -0.3076,-0.288 -0.2923,-0.2913 -0.2819,-0.2989 -0.2649,-0.3075 -0.2529,-0.3198 -0.237,-0.3216 -0.2222,-0.3299 -0.2086,-0.3406 -0.1511,-0.2677 0.0297,-0.0187 c -0.0851,-0.1421 -0.1749,-0.2885 -0.2602,-0.4316 l -0.0363,-0.074 -0.008,-7e-4 c -0.2142,-0.3625 -0.4233,-0.7404 -0.6188,-1.1299 -1.5779,-3.8187 -0.6267,-8.2202 2.9318,-10.6026 6.2737,-3.4455 9.5791,4.0368 6.0305,5.0814 -1.2317,0.1072 -1.9045,-2.6741 -1.3215,-2.8908 -2.8906,2.8014 0.804,6.1322 3.3726,3.5011 3.1285,-3.5608 -0.3166,-8.1475 -3.8668,-8.6807 -8.2328,-1.2406 -12.137,8.5368 -9.3494,14.7036 0.2261,0.4456 0.4696,0.8778 0.7261,1.299 l -0.022,0.0136 0.002,0.007 0.3269,0.5756 0.3603,0.5663 0.4024,0.5593 0.4414,0.5519 0.4842,0.5421 0.5227,0.5351 0.5609,0.5248 0.6065,0.5167 0.6447,0.5044 c 5.3667,3.8645 11.0795,5.064 17.2746,3.5338 16.1479,-3.9855 22.932,-18.7036 20.8063,-34.2107 -0.5712,-4.1593 -1.9605,-8.2731 -3.9329,-12.1461 -2.1664,-4.255 -4.9264,-7.8471 -8.1579,-10.7588 -11.6466,-10.492697 -27.6009,-13.312097 -41.9092,-8.2991 -20.7189,6.5153 -34.5245,18.2825 -48.682,29.273 l -0.7424,5.3049 c 15.1129,-11.5959 29.6986,-24.5716 50.2207,-32.0692 z"
     style="fill:#1b1918;fill-rule:evenodd;stroke:#000000;stroke-width:0.5;stroke-linecap:round;stroke-linejoin:round;stroke-dasharray:none"
     id="path4" />
  <path
     d="m 196.7673,209.61578 c 2.1649,-2.1199 4.6822,-3.9899 7.5483,-5.5618 3.3899,-1.8595 6.9831,-3.2373 10.6349,-3.9438 13.9539,-2.7037 27.8865,2.6394 32.2964,17.165 1.574,5.1769 0.8144,9.8852 -1.8554,14.8182 l -0.2314,0.3933 -0.2386,0.3757 -0.2413,0.3652 -0.2552,0.35 -0.2608,0.3358 -0.2734,0.3202 -0.276,0.3052 -0.2858,0.2961 -0.2951,0.2791 -0.3077,0.2671 -0.3111,0.2526 -0.3192,0.2364 -0.3309,0.2262 -0.2591,0.1618 -0.021,-0.029 c -0.1377,0.0914 -0.2797,0.1887 -0.4186,0.2805 l -0.0711,0.0393 -0.001,0.009 c -0.3518,0.2296 -0.7197,0.4575 -1.1001,0.6696 -3.7411,1.7532 -8.1819,1.0088 -10.7265,-2.4372 -3.7342,-6.1056 3.5851,-9.7559 4.7948,-6.2591 0.1644,1.2263 -2.5823,2.0278 -2.8266,1.4542 2.9335,2.757 6.0883,-1.0884 3.3412,-3.5295 -3.7021,-2.962 -8.1241,0.6924 -8.492,4.264 -0.856,8.2807 9.0919,11.7288 15.1235,8.6564 0.4334,-0.2447 0.8541,-0.5094 1.2627,-0.7859 l 0.0148,0.0218 0.007,-0.003 0.5599,-0.3524 0.5485,-0.387 0.5407,-0.4268 0.531,-0.4661 0.5183,-0.5099 0.5103,-0.5467 0.4978,-0.5847 0.4868,-0.6297 0.4746,-0.6669 c 3.6106,-5.541 4.5455,-11.3046 2.7288,-17.4209 -4.7307,-15.9447 -19.749,-22.039 -35.1403,-19.1945 -4.1288,0.7635 -8.1732,2.3416 -11.9502,4.4929 -3.7545,2.137 -6.9447,4.7326 -9.5623,7.6992 z"
     style="fill:#1b1918;fill-rule:evenodd;stroke:#000000;stroke-width:0.5;stroke-linecap:round;stroke-linejoin:round;stroke-dasharray:none"
     id="path6" />
  <path
     d="m 28.3188,326.33528 0.3526,-0.0323 0.9474,-0.0987 0.9477,-0.1101 0.948,-0.1227 0.9472,-0.1344 0.947,-0.1465 0.9458,-0.1587 0.9451,-0.1714 0.9431,-0.1837 0.9415,-0.1963 0.9388,-0.2084 0.9369,-0.2215 0.9334,-0.2341 0.9304,-0.247 0.9271,-0.2596 0.924,-0.2735 0.9188,-0.2859 0.9147,-0.2994 0.9099,-0.3126 0.9052,-0.3264 0.8992,-0.3395 0.8937,-0.3532 0.8872,-0.3669 0.8815,-0.381 0.8744,-0.3948 0.8671,-0.4086 0.8599,-0.4225 0.8524,-0.4371 0.8437,-0.4509 0.8356,-0.4655 0.8226,-0.4774 1.9177,-1.1427 1.9094,-1.1496 1.9051,-1.1601 1.9002,-1.1702 1.8954,-1.1813 1.8897,-1.1918 1.8838,-1.2028 1.8773,-1.214 1.871,-1.2259 1.8636,-1.2372 1.8566,-1.2491 1.8484,-1.2612 1.8406,-1.2736 1.8315,-1.2861 1.8229,-1.2988 1.8132,-1.3114 1.804,-1.3254 1.7933,-1.3385 1.7833,-1.352 1.7717,-1.3659 1.761,-1.3802 1.7488,-1.3942 1.7372,-1.4086 1.724,-1.4232 1.7119,-1.4386 1.6982,-1.4536 1.6846,-1.4688 1.6706,-1.4842 1.6562,-1.5004 1.6412,-1.5161 1.6261,-1.5325 1.6128,-1.551 6.245,-6.1925 6.3069,-6.484 6.3683,-6.7457 6.4307,-6.9805 6.4954,-7.1886 6.5608,-7.3695 6.6284,-7.5241 6.6967,-7.651 6.7671,-7.7519 6.8383,-7.8252 6.911,-7.8713 6.9845,-7.8911 7.0602,-7.8833 7.1362,-7.8493 7.2138,-7.788 7.292,-7.6993 7.3719,-7.5834 7.453,-7.4412 7.5349,-7.2719 7.6179,-7.0752 7.7014,-6.8514 7.7869,-6.6013 7.8724,-6.3236 7.9595,-6.0193 8.0463,-5.687997 8.1348,-5.3302 8.224,-4.9452 8.314,-4.5347 8.4045,-4.0965 7.566,-3.2349 c 20.0091,-7.1357 36.8271,-14.0802 58.9836,-10.0011 l 1.9643,0.3691 c 13.1533,4.2903 23.4039,14.7001 28.1296,27.6166 l 0.2434,1.0473 v 1.2744 h 0.5359 c 1.2107,3.9541 1.8719,8.060397 1.8197,12.115997 -0.1581,12.2722 -6.642,24.0896 -17.4921,30.3035 -3.3118,1.8965 -7.0781,3.1542 -11.2401,3.6542 -3.3873,0.407 -6.7842,0.3519 -10.0048,-0.2714 -12.3145,-2.3786 -21.9652,-11.3374 -20.7963,-24.6824 0.4164,-4.7572 2.5879,-8.3617 6.3972,-11.5225 l 0.3186,-0.2455 0.3185,-0.23 0.3188,-0.2191 0.3226,-0.2014 0.3245,-0.1901 0.3293,-0.1728 0.3276,-0.1587 0.3317,-0.148 0.3329,-0.1311 0.3397,-0.1173 0.3366,-0.105 0.3395,-0.089 0.3447,-0.0746 0.2667,-0.0475 0.007,0.0294 c 0.1427,-0.0292 0.2917,-0.0623 0.4353,-0.0908 l 0.0721,-0.009 0.003,-0.006 c 0.3644,-0.0727 0.7403,-0.137 1.1211,-0.1866 3.6405,-0.2051 7.0308,1.8671 7.9819,5.5248 1.0465,6.2293 -6.1487,6.8075 -5.9868,3.5472 0.2688,-1.0576 2.7818,-0.8099 2.7927,-0.2612 -1.4936,-3.222 -5.3433,-1.1125 -3.8975,1.7925 2.0568,3.6419 6.8801,2.1048 8.357,-0.6977 3.4265,-6.499 -3.5848,-12.594297 -9.533,-12.064697 -0.4375,0.0586 -0.8685,0.1361 -1.2933,0.2269 l -0.006,-0.0214 -0.006,-0.001 -0.5742,0.105 -0.5766,0.1357 -0.5833,0.1728 -0.588,0.2074 -0.5925,0.245097 -0.598,0.2795 -0.6001,0.3163 -0.6069,0.3547 -0.6075,0.3899 c -4.7802,3.348 -7.4398,7.7593 -7.9663,13.3655 -1.3736,14.6126 8.9168,24.544 22.455,27.2819 3.6314,0.7324 7.463,0.7702 11.2631,0.2534 4.1754,-0.5683 7.9698,-1.8235 11.3357,-3.6699 12.128,-6.6528 19.115,-19.1262 19.0981,-32.5047 -0.005,-4.085 -0.635,-8.193597 -1.799,-12.181797 h 0.888 l -0.9653,-1.9306 -0.6102,-2.6263 c -4.1445,-7.2449 -13.8916,-24.3374 -29.4033,-28.0907 l -2.6618,-0.5004 -2.503,-0.3463 c -16.4614,-4.2698 -33.0132,-1.3385 -47.0838,6.5386 l -1.2514,0.3785 -8.7384,3.1972 -8.6328,3.6912 -8.5278,4.1565 -8.425,4.5951 -8.3234,5.0053 -8.2241,5.3885 -8.1255,5.7439 -8.0298,6.072697 -7.9349,6.3738 -7.842,6.6481 -7.7503,6.8946 -7.6607,7.115 -7.5723,7.3077 -7.4854,7.4737 -7.3999,7.6122 -7.3159,7.7248 -7.2338,7.8093 -7.1523,7.867 -7.0729,7.8977 -6.994,7.9017 -6.9172,7.8784 -6.8407,7.828 -6.7663,7.7511 -6.6926,7.6461 -6.6201,7.515 -6.5489,7.3559 -6.479,7.1706 -6.4094,6.9574 -6.3415,6.7174 -6.2741,6.4499 -6.2108,6.1588 -1.5866,1.5255 -1.605,1.5128 -1.6203,1.4967 -1.6357,1.4816 -1.65,1.4661 -1.6645,1.4515 -1.6784,1.4364 -1.6922,1.4221 -1.7047,1.4072 -1.7179,1.3933 -1.7302,1.379 -1.7426,1.3659 -1.7536,1.3518 -1.7652,1.3385 -1.776,1.3254 -1.7867,1.3126 -1.796,1.2995 -1.8065,1.2869 -1.8155,1.2746 -1.8245,1.2629 -1.8328,1.2505 -1.8414,1.2388 -1.8492,1.2274 -1.8566,1.2164 -1.863,1.2049 -1.8701,1.1943 -1.8762,1.1831 -1.8823,1.1731 -1.8878,1.1623 -1.8928,1.1528 -1.8975,1.1426 -1.8979,1.1308 -0.7861,0.4564 -0.7916,0.4408 -0.8001,0.4275 -0.8089,0.4149 -0.8167,0.4012 -0.8247,0.3888 -0.8317,0.3755 -0.8391,0.3625 -0.8453,0.3496 -0.8523,0.3368 -0.8584,0.3243 -0.8642,0.3116 -0.8695,0.2986 -0.8749,0.2863 -0.8798,0.2739 -0.8841,0.2616 -0.888,0.2489 -0.8921,0.2368 -0.8957,0.2246 -0.8987,0.2125 -0.9014,0.2002 -0.9044,0.1884 -0.9065,0.1764 -0.9082,0.1648 -0.9092,0.1525 -0.9108,0.1412 -0.9119,0.129 -0.9123,0.1182 -0.9118,0.106 -0.9125,0.095 -0.0723,0.007 z"
     style="fill:#1b1918;fill-rule:evenodd;stroke:#000000;stroke-width:0.216;stroke-linecap:butt;stroke-linejoin:miter;stroke-dasharray:none"
     id="path8" />
  <path
     d="m 294.3054,181.49278 -1.3317,-0.3745 -1.3197,-0.4357 -0.7462,-0.2836 -0.1451,0.132 -0.4581,-0.16 -0.5421,-0.1948 -0.8376,-0.3268 -0.8938,-0.3994 -0.9257,-0.465 -0.9417,-0.5315 -0.9444,-0.5955 -0.9331,-0.6586 -0.9084,-0.7247 -0.8678,-0.7907 -0.8093,-0.8545 -0.7366,-0.9236 -0.6461,-0.9904 -0.5359,-1.0587 -0.4043,-1.1265 -0.2513,-1.1907 -0.0778,-1.2465 0.113,-1.2879 0.2085,-0.8986 0.3156,-0.8432 0.4102,-0.783 0.495,-0.7204 0.5676,-0.6538 c 3.6673,-3.9625 8.5757,-2.6215 12.5572,1.2128 l 0.6821,0.4973 0.5571,0.6034 0.5546,0.5413 0.5358,0.4471 0.4946,0.3284 0.4247,0.1913 c -0.0512,0.0112 -0.0972,0.0231 -0.1405,0.0348 3.2676,1.8446 7.3387,0.2601 6.1317,-3.0943 l -0.1437,-0.3689 -0.1124,-0.1472 c -3.8005,-3.0303 -7.818,0.5135 -11.5905,-1.5227 -4.6801,-2.527 -2.4468,-4.9198 -4.9848,-7.2563 -1.3338,-1.2238 -2.416,-0.684 -3.2822,0.3042 l -0.5248,-0.2631 c 0.6859,-1.4607 2.7886,-2.1607 4.472,-0.7879 2.4572,2.0109 1.1413,4.4732 4.7779,6.4881 3.919,2.1771 8.4296,-1.8604 12.461,1.7382 l 0.4118,0.5499 c 3.0041,5.6939 -3.6397,8.5599 -8.3824,6.2443 l -0.5454,-0.2442 -0.7369,-0.4903 -0.6914,-0.5766 -0.6504,-0.6347 -0.6194,-0.6689 c -3.0953,-2.5904 -5.758,-4.1071 -9.1454,-2.4726 l -0.5144,0.3887 -0.4677,0.4345 -0.4159,0.4778 -0.3543,0.5162 -0.2895,0.553 -0.2201,0.5909 -0.1444,0.6196 -0.0867,0.9798 0.0593,0.9315 0.1899,0.8972 0.3109,0.8673 0.4244,0.8388 0.5258,0.8084 0.6165,0.771 0.6948,0.7336 0.7581,0.6905 0.806,0.643 0.8358,0.5916 0.4313,0.2712 c 1.1454,0.4833 2.5558,1.151 4.2054,2.0137 l 0.4992,0.1752 0.5201,0.1765 0.506,0.1668 -0.0438,0.0398 1.031,0.3404 1.2467,0.3509 1.2566,0.29 1.268,0.2307 c 11.2138,1.9425 22.6688,-0.5945 30.5441,-6.0849 4.1249,-2.8758 13.2946,-11.0167 15.4305,-30.2291 l 2.817,-5.4612 c -0.4315,22.2781 -11.5789,33.1904 -16.905,37.0531 -10.1683,7.374 -24.907,9.1094 -34.8991,6.0667 z"
     style="fill:#1b1918;fill-rule:evenodd;stroke:#000000;stroke-width:0.216;stroke-linecap:butt;stroke-linejoin:miter;stroke-dasharray:none"
     id="path10" />
  <g
     id="Layer1000"
     transform="translate(-213.679,-78.012217)">
    <path
       d="m 242.6698,311.965 -1.2326,0.0337 -1.2156,-0.1692 -1.2086,-0.3004 -1.1923,-0.4034 -1.174,-0.4587 -1.1297,-0.4909 -1.0732,-0.4861 -0.9872,-0.4471 -0.8675,-0.3823 -0.7011,-0.2716 -0.4408,-0.1218 -0.125,-0.007 -0.7086,0.1569 -0.5588,0.2624 -0.3921,0.3056 -0.2799,0.3772 -0.2123,0.4765 -0.1317,0.6025 -0.049,0.7241 0.051,0.8208 0.1298,0.901 0.2163,0.9524 0.2809,0.9735 0.339,0.9851 0.3792,0.9715 0.409,0.932 0.4189,0.8851 0.4096,0.8121 c 10.3475,16.5971 29.7489,30.4052 29.3352,50.9478 l -2.7457,-0.4255 c 0.5506,-18.9089 -18.4467,-31.165 -27.963,-46.889 l -1.2298,-2.2689 -0.4497,-0.887 -0.4545,-0.9632 -0.4443,-1.0213 -0.4228,-1.0772 -0.3793,-1.1077 -0.3348,-1.1315 -0.2561,-1.1471 -0.1742,-1.1467 -0.0572,-1.1369 0.0703,-1.1301 0.2521,-1.0969 0.4649,-1.0534 0.7063,-0.9434 0.9567,-0.7619 1.1623,-0.5338 1.4267,-0.3256 0.8608,0.0547 0.8738,0.2442 0.8834,0.345 0.9481,0.4172 1.0041,0.4544 1.0472,0.4727 1.0644,0.4638 1.0591,0.4214 1.0164,0.3313 0.9378,0.2389 0.8141,0.111 0.6438,-0.0155 0.437,-0.1154 0.2875,-0.1932 0.2501,-0.3193 0.2219,-0.5928 0.0186,-0.2992 -0.0623,-0.3302 -0.1861,-0.4403 -0.3026,-0.5235 -0.4024,-0.6 -0.456,-0.6575 -0.4682,-0.7178 -0.7014,-1.3195 1.2853,0.1696 0.3442,0.0382 0.3292,0.0416 0.3193,0.0473 0.3065,0.067 0.3026,0.0899 0.2929,0.1263 0.2926,0.1664 0.29,0.2198 0.2947,0.2762 0.2958,0.3458 0.302,0.4222 0.3132,0.5063 0.3719,0.8829 0.2009,1.0208 -0.0896,1.0982 -0.508,1.4005 -0.8375,1.0842 -1.1036,0.7048 z"
       style="fill:#000000;fill-rule:evenodd;stroke:#000000;stroke-width:0.216;stroke-linecap:butt;stroke-linejoin:miter;stroke-dasharray:none"
       id="path12" />
    <g
       id="Layer1001">
      <path
         d="m 251.4956,386.6815 c 4.5294,-3.8905 6.8546,-9.5379 6.7025,-15.1989 -0.0502,-1.8868 0.4553,-3.294 -0.1561,-5.1197 l 2.2738,0.4435 c 1.9217,7.9414 -0.6854,16.5971 -7.2106,22.0876 z"
         style="fill:#1b1918;fill-rule:evenodd;stroke:#1b1918;stroke-width:0.216;stroke-linecap:butt;stroke-linejoin:miter;stroke-dasharray:none"
         id="path14" />
      <path
         d="m 243.3438,383.23 c -1.0578,2.151 -0.1972,3.8319 0.9593,4.8005 2.068,1.7215 5.1355,0.9772 7.6296,-1.7114 l 1.9859,1.859 c -2.2924,2.1392 -5.136,3.3827 -7.6126,2.9613 -2.6403,-0.4438 -5.9536,-3.5849 -4.1341,-7.8735 z"
         style="fill:#1b1918;fill-rule:evenodd;stroke:#1b1918;stroke-width:0.216;stroke-linecap:butt;stroke-linejoin:miter;stroke-dasharray:none"
         id="path16" />
    </g>
  </g>
  <path
     d="m 141.5063,214.92058 c 10.5576,-7.384 24.6042,-9.0956 36.5472,-3.6517 3.6455,1.6616 7.0253,4.102 10.0013,7.3433 2.422,2.6384 4.4558,5.5679 5.8972,8.6955 5.5147,11.9538 3.7885,25.669 -8.3035,32.8471 -4.3096,2.5588 -8.7126,2.9161 -13.7411,1.6053 l -0.4042,-0.1206 -0.3903,-0.1326 -0.3827,-0.1362 -0.3692,-0.1519 -0.3612,-0.1605 -0.3488,-0.1749 -0.3363,-0.1823 -0.3286,-0.1913 -0.3167,-0.203 -0.308,-0.217 -0.2953,-0.2243 -0.2837,-0.2354 -0.275,-0.2478 -0.2047,-0.1977 0.022,-0.0244 c -0.1134,-0.1048 -0.2314,-0.2104 -0.3446,-0.3153 l -0.0511,-0.0556 -0.008,10e-4 c -0.2852,-0.2656 -0.5699,-0.5466 -0.8465,-0.8413 -2.4046,-2.9783 -3.5088,-7.9924 -0.9727,-11.0436 3.807,-3.8394 12.9144,-1.0559 17.0751,-5.8701 l 0.002,0.002 c 1.6908,-1.99 3.0937,-4.7439 2.5083,-7.4444 -0.5456,-2.5163 -3.7065,-5.5607 -7.7474,-3.6237 l 0.0176,1.1282 c 2.0192,-1.1121 3.6753,-0.3626 4.655,0.7078 1.6548,1.808 1.2192,4.5779 -0.9311,7.0021 l -0.047,-0.031 c -5.2857,6.7556 -13.2261,0.8032 -17.4778,6.8431 -2.5465,3.6174 -2.7958,9.5551 1.2529,13.896 0.318,0.3367 0.6474,0.6565 0.9869,0.9631 l -0.0166,0.0178 0.004,0.005 0.4403,0.4257 0.4691,0.4087 0.5044,0.3921 0.5363,0.3735 0.5733,0.3542 0.6048,0.3388 0.6359,0.3191 0.6746,0.3001 0.7058,0.2783 c 5.7811,2.0236 11.1719,1.5888 16.2724,-1.3961 13.2988,-7.7799 15.4608,-22.6368 9.5023,-35.8533 -1.5992,-3.5447 -3.9142,-6.8351 -6.6834,-9.7572 -3.0414,-3.2112 -6.4362,-5.6779 -10.0715,-7.4152 -13.101,-6.2638 -28.0133,-4.5798 -39.4083,3.6302 -16.6945,11.227 -25.8694,25.3039 -35.5602,38.7848 l 0.7328,4.9073 c 10.3813,-14.2683 19.9312,-29.6248 36.1937,-41.672 z"
     style="fill:#1b1918;fill-rule:evenodd;stroke:#000000;stroke-width:0.5;stroke-linecap:round;stroke-linejoin:round;stroke-dasharray:none"
     id="path20" />
  <path
     d="m 229.3804,197.40988 c 1.5804,0.5212 3.1824,1.0235 4.8069,1.5025 l 1.106,0.2669 9.6651,2.0262 -0.2115,0.4185 c 16.4284,3.5309 47.7338,7.059 54.5167,-11.3828 l 0.0517,0.0146 c 1.2192,-2.7725 0.8141,-5.3641 -1.1764,-6.4983 -1.1774,-0.6712 -2.866,-0.8669 -4.3459,0.7018 l -0.3381,-0.9992 c 3.0412,-2.881 6.727,-1.0754 7.9329,1.0074 0.9993,1.7271 0.9965,4.1043 0.2357,6.431 l 0.0109,0.003 c 0.1653,0.0459 -0.1188,0.3234 -0.1812,0.4834 -0.0535,0.1428 -0.1077,0.2848 -0.1667,0.4264 l -0.003,-0.002 c -1.2655,3.0643 -3.145,5.5439 -5.4725,7.5379 l 0.796,0.0704 0.8114,0.1985 0.77,0.3526 0.6856,0.542 0.5488,0.7164 0.3811,0.8653 0.2159,1.0593 -0.0532,0.6352 -0.194,0.6428 -0.2676,0.6447 -0.3184,0.6972 -0.3518,0.7369 -0.3657,0.7655 -0.3521,0.7788 -0.3238,0.7748 -0.2646,0.7478 -0.1927,0.6905 -0.0911,0.6001 3e-4,0.4733 0.0813,0.3282 0.1333,0.2152 0.2347,0.1894 0.4363,0.1669 0.2168,0.0193 0.2523,-0.0409 0.323,-0.1295 c 5.7224,-1.4678 5.3288,-7.114 9.939,-8.7367 5.9152,-2.0806 6.2325,1.7626 10.2831,1.4003 2.1251,-0.1933 2.5114,-1.5659 2.3364,-3.1049 l 0.6444,-0.2507 c 0.7322,1.7569 -0.3234,4.1481 -2.8566,4.5281 -3.7019,0.55 -4.8081,-2.5491 -9.448,-0.973 -4.8354,1.6369 -3.9367,6.8697 -9.9731,9.1087 l -0.6619,0.2584 -0.7583,0.1289 -0.8052,-0.075 -1.0235,-0.3994 -0.7891,-0.6295 -0.5134,-0.8308 -0.2182,-0.9012 -0.008,-0.9046 0.1417,-0.8943 0.2391,-0.8917 0.311,-0.8723 0.3579,-0.8641 0.3815,-0.8273 0.373,-0.7868 0.3482,-0.7197 0.2941,-0.6348 0.2088,-0.516 0.0974,-0.3226 0.009,-0.0947 -0.1089,-0.5252 -0.1857,-0.4231 -0.2184,-0.2838 -0.276,-0.2156 -0.3454,-0.1605 -0.4436,-0.112 -0.5376,-0.0442 -0.6051,0.0191 -0.6725,0.0861 -0.7023,0.143 -0.7257,0.2001 -0.73,0.2355 -0.7249,0.2673 -0.6936,0.2845 -0.6619,0.2991 -0.6013,0.293 -0.0568,0.0293 -0.188,-0.0949 c -14.5518,6.2172 -36.9944,2.4142 -48.689,-0.3835 -2.6786,-0.6405 -5.3174,-1.3428 -7.9168,-2.1005 l -1.7329,-0.4282 -1.3945,-0.3557 z"
     style="fill:#1b1918;fill-rule:evenodd;stroke:#1b1918;stroke-width:0.216;stroke-linecap:butt;stroke-linejoin:miter;stroke-dasharray:none"
     id="path22" />
  <path
     d="m 50.3714,200.52778 c 7.8138,-3.8567 17.4586,-1.1173 22.0101,6.4847 1.8795,3.142 2.6186,6.6624 2.3352,10.0651 l 0.2976,0.4659 c -0.0827,2.1717 0.642,4.5694 1.9543,6.9067 l 0.328,0.8328 0.4691,0.733 0.4067,0.7125 0.3159,0.6699 0.2044,0.5953 0.0817,0.4864 -0.0221,0.3462 -0.095,0.2453 -0.2059,0.2326 -0.4162,0.2505 -0.2172,0.0617 h -0.2607 l -0.3563,-0.0722 -0.4421,-0.1507 -0.5055,-0.2136 -0.5622,-0.2446 -0.6113,-0.2446 -0.5031,-0.1517 -0.7456,-0.3671 c 0.9112,1.6379 0.3231,2.713 2.7805,3.5474 l 0.7202,0.1474 0.7957,-0.002 0.8101,-0.2257 0.9739,-0.5904 0.6926,-0.7887 0.3699,-0.936 0.0619,-0.9598 -0.154,-0.9256 -0.3062,-0.8873 -0.4061,-0.8627 -0.478,-0.8369 -0.5192,-0.8133 c -1.8296,-3.8691 -2.6726,-7.0058 -0.0899,-10.0419 l 0.5361,-0.4245 0.5718,-0.3635 0.5998,-0.2978 0.6243,-0.2252 0.6455,-0.15 0.664,-0.0674 0.6744,0.0176 1.0273,0.1738 0.9409,0.3091 0.8696,0.4353 0.8058,0.5509 0.7475,0.6591 0.687,0.7558 0.627,0.8396 0.5664,0.9082 0.5059,0.9619 0.4439,0.9981 0.3827,1.0165 0.3229,1.0192 0.2649,1.004 0.208,0.9695 0.1529,0.9198 0.1017,0.864 0.0515,0.5676 0.0472,0.5813 0.0419,0.5812 0.0366,0.5832 0.0327,0.5839 0.0261,0.5847 0.0225,0.5843 0.0155,0.5863 0.0105,0.5854 0.004,0.5857 -10e-4,0.5846 -0.009,0.586 -0.0131,0.584 -0.0209,0.5844 -0.0271,0.5825 -0.0344,0.5843 -0.0394,0.582 -0.0469,0.5806 -0.054,0.5779 -0.0625,0.5779 -0.0689,0.5768 -0.0757,0.5744 -0.0843,0.5724 -0.0922,0.5725 -0.0984,0.5684 -0.1079,0.5658 -0.1157,0.5641 -0.1249,0.5624 -0.1316,0.559 -0.1413,0.5558 -0.1494,0.5528 -0.1566,0.5439 c -1.6686,8.4298 -5.3918,18.7154 -11.2868,29.6307 l 1.3166,2.9298 c 6.1396,-11.0384 10.3693,-22.2563 12.4517,-33.0867 l 0.1498,-0.5914 0.1409,-0.5919 0.1312,-0.5959 0.122,-0.5962 0.1139,-0.5991 0.1053,-0.5996 0.0966,-0.6024 0.0889,-0.6036 0.0802,-0.6044 0.0722,-0.6037 0.0642,-0.6073 0.0574,-0.6079 0.0489,-0.6076 0.0424,-0.6056 0.0356,-0.6104 0.0284,-0.6089 0.0214,-0.6098 0.0139,-0.6079 0.008,-0.6096 0.002,-0.6093 -0.005,-0.6088 -0.0114,-0.606 -0.0151,-0.6078 -0.0227,-0.6058 -0.028,-0.6059 -0.0337,-0.6019 -0.0369,-0.6034 -0.0449,-0.6026 -0.0491,-0.5994 -0.0548,-0.6087 -0.1112,-0.9473 -0.1706,-1.0228 -0.229,-1.0738 -0.2933,-1.1071 -0.3572,-1.1297 -0.4274,-1.1332 -0.5003,-1.1247 -0.5783,-1.1016 -0.6605,-1.0585 -0.749,-1.0028 -0.8433,-0.927 -0.9433,-0.8333 -1.0469,-0.7155 -1.1541,-0.5768 -1.2577,-0.4137 -1.3508,-0.2283 -0.9781,-0.0263 -0.9487,0.0975 -0.9141,0.2114 -0.8707,0.3154 -0.8223,0.4075 c -0.8486,0.4546 -1.554,0.9857 -2.1245,1.5779 -0.3599,-2.4236 -1.1896,-4.8159 -2.5234,-7.0439 -5.0147,-8.3719 -15.4433,-11.5756 -24.1821,-7.8297 l -0.002,-0.004 c -0.0101,0.006 -0.0197,0.012 -0.0298,0.0181 -0.3637,0.1569 -0.7254,0.3232 -1.083,0.5043 l 0.0266,0.0444 c -2.3772,1.0421 -4.651,0.7536 -5.755,-0.9678 -0.9475,-1.475 0.5515,-4.7076 4.5851,-3.6261 l -0.5499,-1.0548 c -5.3075,-0.8505 -6.626,3.1436 -5.7574,5.1887 1.4571,3.4245 5.5728,3.5501 8.6579,2.4298 z"
     style="fill:#1b1918;fill-rule:evenodd;stroke:#1b1918;stroke-width:0.216;stroke-linecap:butt;stroke-linejoin:miter;stroke-dasharray:none"
     id="path24" />
  <path
     d="m 58.9739,314.76058 4.3774,-4.1444 5.0929,-5.2716 5.0042,-5.6009 4.9237,-5.9007 4.8521,-6.1721 4.7883,-6.4145 4.7328,-6.6288 4.6846,-6.8136 4.6456,-6.971 4.6128,-7.0989 4.5891,-7.1982 4.5716,-7.2686 4.563,-7.3112 4.5612,-7.3238 4.5673,-7.3083 4.5801,-7.2638 4.6014,-7.1909 4.629,-7.0882 4.6643,-6.957 4.7065,-6.7978 4.7562,-6.608 4.8125,-6.3907 4.876,-6.1438 4.946,-5.868 5.0228,-5.5632 5.1062,-5.2299 5.1955,-4.8682 5.291,-4.4781 5.3934,-4.0595 5.501,-3.6144 5.6161,-3.1419 5.7568,-2.6521 1.082,-0.4271 1.109,-0.4032 1.1161,-0.3716 1.1233,-0.3397 1.1302,-0.3076 1.1356,-0.276 1.141,-0.2444 1.1449,-0.2125 1.1491,-0.1798 1.1529,-0.1484 1.1554,-0.1161 1.1576,-0.0841 1.1591,-0.0518 1.1602,-0.0195 1.1605,0.0128 1.1603,0.045 1.1587,0.0779 1.1577,0.1099 1.1556,0.1428 1.1529,0.1751 1.1492,0.2082 1.1458,0.2405 1.1408,0.2733 1.1358,0.3062 1.1297,0.3393 1.1238,0.3722 1.1167,0.4053 1.1092,0.4381 1.1007,0.4717 1.0925,0.5047 1.0825,0.5381 1.0283,0.5476 0.923,0.6154 1.1792,-1.1793 c 0.0709,0.037 0.142,0.0736 0.2127,0.111 7.7183,4.0881 14.9813,11.2319 19.21,19.6452 l -5.9348,4.0114 -7.9604,5.6576 -7.902,5.8721 -7.8403,6.0614 -3.5973,2.8798 c 0.5855,-0.6981 1.0037,-1.5216 1.1618,-2.3611 1.3621,-7.2197 -7.1323,-10.9814 -12.6615,-8.7244 -0.4009,0.1847 -0.7904,0.3859 -1.1691,0.5976 l -0.012,-0.0189 -0.006,6e-4 -0.5183,0.269 -0.5109,0.3003 -0.5068,0.3362 -0.5011,0.3716 -0.4938,0.4085 -0.4895,0.4437 -0.4801,0.4785 -0.4756,0.5177 -0.4659,0.5513 c -3.5831,4.6068 -4.8264,9.6053 -3.6797,15.118 0.53,2.5484 1.3679,4.8472 2.4635,6.8984 l -1.1677,0.9904 -7.5524,6.5575 -7.4704,6.6165 -7.3839,6.6502 -7.2936,6.6578 -7.199,6.6393 -7.0998,6.5951 -6.9965,6.5247 -6.8892,6.4288 -6.7768,6.306 -6.6611,6.1582 -6.5398,5.9835 -6.4151,5.7838 -6.2848,5.557 -6.151,5.3049 -6.0115,5.0263 -5.8713,4.7245 -1.5853,1.2349 -1.6045,1.2251 -1.6198,1.2121 -1.6351,1.2 -1.6498,1.1875 -1.6643,1.1757 -1.678,1.1634 -1.692,1.1519 -1.7045,1.14 -1.7179,1.1285 -1.7302,1.1173 -1.7425,1.1063 -1.7537,1.0952 -1.7653,1.0847 -1.7761,1.0736 -1.7869,1.0637 -1.7962,1.0527 -1.8067,1.0427 -1.8157,1.0329 -1.8249,1.0233 -1.833,1.0132 -1.8418,1.0039 -1.8494,0.9945 -1.8568,0.9856 -1.8634,0.9762 -1.8704,0.9676 -1.8767,0.9587 -1.8827,0.9507 -1.8881,0.9416 z m 36.5803,-100.4965 c -0.3946,-15.2639 -1.0646,-30.5711 8.6459,-42.333 l 0.0555,0.06 c 4.026,-5.8335 10.5457,-9.7931 17.9282,-10.3752 l -5e-4,-0.003 c 0.199,-0.0163 0.3971,-0.028 0.5948,-0.0364 0.195,-0.0109 0.3905,-0.0199 0.5865,-0.0257 l -4e-4,0.0123 c 2.974,-0.0107 5.7234,0.873 7.3444,2.6768 1.9598,2.1707 2.6653,7.1067 -1.8007,9.5445 l -1.0271,-0.7652 c 2.3646,-1.1233 2.7676,-3.1455 2.4343,-4.7588 -0.5717,-2.7237 -3.4089,-4.1627 -7.0697,-3.7893 l -0.003,0.0646 c -6.516,0.2595 -12.3355,3.5179 -16.0461,8.4679 -0.3132,0.418 -0.6365,0.7853 -0.9556,1.133 l 0.0197,0.0214 c -0.8786,1.0448 -1.6622,2.1238 -2.3642,3.2313 -0.013,0.0337 -0.0251,0.067 -0.0374,0.1013 l -0.015,-0.0175 c -6.6159,10.5139 -5.7402,23.7023 -5.165,36.8561 0.5884,13.4739 -0.7363,25.4481 -5.7132,36.6091 l -3.1362,6.7649 -3.2115,6.643 -3.2796,6.4825 -3.3402,6.2845 -3.3938,6.0481 -3.4407,5.7743 -3.481,5.4627 -3.5157,5.1134 -3.5439,4.7266 -3.5681,4.303 -3.5887,3.8421 -3.6073,3.3433 -0.3934,0.3041 0.2569,-0.1042 0.9947,-0.4371 0.9094,-0.4365 0.8161,-0.434 0.7123,-0.4257 0.599,-0.412 0.4935,-0.402 5.0788,-4.8084 5.0094,-5.1853 4.9344,-5.5227 4.8657,-5.8308 4.8041,-6.111 4.7483,-6.3614 4.7003,-6.5832 4.6584,-6.7754 4.6247,-6.9397 4.5971,-7.0746 4.5776,-7.1802 4.5642,-7.2571 4.5597,-7.3054 4.5616,-7.3247 4.5714,-7.3152 4.5883,-7.2766 4.6138,-7.2102 4.6458,-7.1141 4.6861,-6.9895 4.7336,-6.8368 4.7899,-6.6549 4.8532,-6.4445 4.9249,-6.2054 5.0049,-5.9383 5.0934,-5.641 5.19,-5.3162 5.2955,-4.9615 5.4093,-4.578 5.5324,-4.1643 5.6637,-3.7212 5.8039,-3.2471 2.2253,-1.0251 h -3.0697 c 5.4288,-2.3433 11.2393,-3.9333 17.3434,-4.6263 l 0.2892,-0.0454 1.2314,-0.1583 1.2347,-0.1243 1.2378,-0.0898 1.2389,-0.0551 1.2402,-0.0212 1.2403,0.014 1.2409,0.0479 1.2392,0.0832 1.0159,0.0966 c 1.5465,0.1032 3.1074,0.2624 4.6808,0.4817 14.3072,2.1875 27.601,12.2996 34.3015,25.2812 l 0.1942,-0.1313 8.0644,-5.1508 8.1099,-4.8571 8.1527,-4.5387 8.1912,-4.1937 8.2262,-3.8228 8.2569,-3.4246 8.2845,-3.0012 8.308,-2.5502 8.3139,-2.0697 3.8052,-0.7933 3.7007,-0.6917 3.6094,-0.5919 3.5182,-0.4922 3.4263,-0.3909 3.3357,-0.2904 3.2438,-0.1886 3.153,-0.087 3.0609,0.0169 2.9699,0.1196 2.8778,0.2242 2.787,0.3288 2.6946,0.4349 2.6029,0.5413 2.5101,0.6488 2.4174,0.7567 2.3236,0.8663 2.2292,0.9761 2.1334,1.0868 2.0375,1.1971 1.9396,1.3089 1.841,1.4199 1.7407,1.5315 1.6398,1.6418 1.5372,1.7524 1.4347,1.862 0.431,0.6383 h 0.3434 c 6.3423,10.5397 6.8318,15.6731 3.9781,26.9584 -0.9094,3.5911 -2.518,7.0982 -4.861,10.4209 -2.133,3.0254 -4.6804,5.7071 -7.5847,7.7912 -10.835,7.7654 -24.6184,8.5052 -34.0385,-2.0721 -3.6148,-4.0579 -4.9829,-8.8377 -4.2054,-14.416 l 0.1235,-0.6858 0.148,-0.6621 0.1724,-0.6309 0.1952,-0.6069 0.2156,-0.5806 0.2409,-0.5516 0.2612,-0.5253 0.2834,-0.4963 0.3029,-0.4745 0.006,-0.005 0.0181,0.0116 c 0.216,-0.3609 0.4441,-0.7165 0.6897,-1.0634 3.5366,-4.5515 12.4534,-5.4972 14.7911,1.1969 1.0095,2.8854 -1.0758,7.3042 -5.0003,6.3623 -3.004,-0.8884 -1.9631,-4.9944 1.2958,-3.9317 -0.3961,-0.3524 -2.2231,1.2594 -1.6528,2.1448 2.1988,2.2579 6.5201,-3.2062 1.4312,-6.5621 -3.2095,-1.733 -6.9038,-0.7005 -9.1513,2.0061 -0.216,0.3027 -0.4178,0.6105 -0.6054,0.9153 l 0.002,0.007 -0.0404,0.0567 c -0.0738,0.1209 -0.148,0.247 -0.222,0.3667 l -0.0253,-0.014 -0.143,0.2195 -0.1724,0.2934 -0.1616,0.2974 -0.1465,0.3071 -0.141,0.3179 -0.1258,0.3214 -0.1136,0.3313 -0.1032,0.3362 -0.0933,0.3459 -0.0805,0.3537 -0.0693,0.3607 -0.0532,0.3701 -0.0483,0.3763 -0.036,0.3859 c -0.2719,4.7696 0.8473,8.6735 3.935,12.0953 8.6593,9.6003 21.3341,8.6728 31.1122,1.5358 2.5574,-1.865 4.8302,-4.2295 6.7692,-6.8902 2.3833,-3.2696 3.9711,-6.7569 4.809,-10.345 2.0828,-8.9213 0.5368,-15.7889 -3.7821,-23.1019 l -1.2318,-1.8241 -1.3237,-1.7181 -1.4156,-1.6139 -1.5083,-1.5103 -1.6013,-1.4086 -1.6951,-1.3077 -1.7896,-1.2074 -1.8858,-1.1079 -1.9813,-1.0095 -2.0788,-0.91 -2.176,-0.8116 -2.2748,-0.7118 -2.3733,-0.6135 -2.4717,-0.5142 -2.5701,-0.4147 -2.6694,-0.3149 -2.7673,-0.2156 -2.8658,-0.1155 -2.9635,-0.016 -3.0614,0.0841 -3.1587,0.1837 -3.2559,0.2834 -3.352,0.3827 -3.4487,0.4823 -3.544,0.5812 -3.6403,0.6802 -3.7218,0.7761 -8.1848,2.0376 -8.1654,2.5067 -8.1558,2.9542 -8.1406,3.3766 -8.1219,3.7742 -8.0978,4.1457 -8.0689,4.4923 -8.0355,4.8127 -7.9978,5.108 -0.5255,0.3553 c 0.6086,1.4004 1.1421,2.8275 1.5907,4.2778 3.9539,12.781 0.9474,26.7588 -8.685,36.6861 -2.6735,2.7555 -5.9303,5.0721 -9.7534,6.844 -3.4798,1.6127 -7.1523,2.7037 -10.8388,3.0728 -10.2734,1.0227 -19.995,-2.3305 -25.498,-10.0898 l -0.8226,0.6977 -7.5294,6.5374 -7.4507,6.5992 -7.3678,6.6358 -7.2814,6.6463 -7.1894,6.6307 -7.0941,6.5897 -6.9941,6.5226 -6.8904,6.4297 -6.7817,6.3105 -6.6697,6.1664 -6.5534,5.9958 -6.4332,5.8002 -6.3087,5.5781 -6.181,5.3308 -6.0488,5.0574 -5.9104,4.7558 -1.6141,1.2575 -1.6266,1.242 -1.6417,1.2285 -1.6568,1.216 -1.6708,1.2023 -1.6848,1.1905 -1.6986,1.1778 -1.7121,1.1655 -1.7243,1.1531 -1.7372,1.1412 -1.7487,1.1293 -1.761,1.1182 -1.7717,1.1063 -1.7831,1.0954 -1.7933,1.0843 -1.8038,1.0736 -1.813,1.0625 -1.8227,1.0522 -1.8313,1.0415 -1.8402,1.0319 -1.8482,1.0214 -1.8562,1.0122 -1.8633,1.0019 -1.8708,0.993 -1.877,0.9832 -1.8835,0.9745 -1.8891,0.9649 -1.895,0.9569 -1.9,0.9478 -1.9047,0.9394 -1.909,0.9316 -1.917,0.9254 -0.8213,0.386 -0.8339,0.3763 -0.8416,0.3643 -0.8506,0.3535 -0.8576,0.3414 -0.8648,0.3302 -0.872,0.319 -0.8788,0.3076 -0.8847,0.2964 -0.8913,0.2854 -0.8963,0.274 -0.9022,0.2637 -0.9069,0.2523 -0.9119,0.2419 -0.9159,0.231 -0.9207,0.2207 -0.924,0.2097 -0.9275,0.1995 -0.9304,0.1889 -0.9336,0.1788 -0.9355,0.1683 c -8.5348,1.4429 -16.6873,1.9982 -24.1998,-3.2165 l -0.6525,-0.494 -0.6147,-0.5048 -0.5703,-0.515 -0.5314,-0.5261 -0.4943,-0.5325 -0.4505,-0.5446 -0.4108,-0.5528 -0.3705,-0.5594 -0.3358,-0.5703 -0.003,-0.007 0.0222,-0.0146 c -0.2639,-0.416 -0.5159,-0.8445 -0.7487,-1.2851 -2.8943,-6.1185 0.8438,-15.961 9.0956,-14.8631 3.5593,0.4718 7.083,4.9985 4.0132,8.6134 -2.52,2.6742 -6.2714,-0.5912 -3.4302,-3.4433 -0.5793,0.2273 0.1404,2.9966 1.3708,2.8675 3.5309,-1.1071 0.0964,-8.5298 -6.1155,-4.9759 -3.5198,2.4427 -4.3938,6.86 -2.7499,10.6509 0.2006,0.386 0.4178,0.7611 0.6367,1.1191 l 0.009,0.002 0.036,0.0726 c 0.0885,0.1413 0.1812,0.2856 0.2684,0.4262 l -0.0288,0.0199 0.1539,0.2645 0.2162,0.3364 0.2269,0.3264 0.2433,0.3181 0.2584,0.3155 0.2698,0.3035 0.2881,0.2941 0.2972,0.2849 0.3118,0.2828 0.3282,0.2702 0.3426,0.2655 0.3578,0.2524 0.3687,0.2487 0.3855,0.2431 c 7.2149,4.1818 16.4848,3.297 22.4837,-2.9 l 1.8462,-2.3433 1.6934,-2.6048 1.5436,-2.8501 1.394,-3.0761 1.2475,-3.2839 1.1027,-3.4722 0.9623,-3.641 0.8245,-3.7897 c 4.3624,-24.7532 7.7262,-76.3779 -18.8386,-85.8405 -5.1582,-1.8402 -9.9581,-1.2974 -15.0746,1.1665 l -0.4093,0.2145 -0.3909,0.223 -0.3813,0.2283 -0.3652,0.2405 -0.3528,0.2462 -0.3371,0.263 -0.3218,0.2633 -0.3132,0.275 -0.2972,0.2848 -0.2856,0.299 -0.2701,0.3013 -0.254,0.3118 -0.245,0.3249 -0.1749,0.2528 0.0272,0.023 c -0.0985,0.1352 -0.2025,0.2737 -0.3038,0.4104 l -0.0425,0.0697 -0.009,0.002 c -0.2488,0.3447 -0.4961,0.7058 -0.7297,1.08 -1.9532,3.6988 -1.4129,8.2259 1.9497,10.9651 5.996,4.0698 10.0399,-3.1564 6.5604,-4.5496 -1.2315,-0.2238 -2.1742,2.5142 -1.6051,2.7892 -2.6495,-3.0981 1.3926,-6.1039 3.7292,-3.2089 2.8168,3.8867 -1.0908,8.1823 -4.7206,8.3844 -8.4162,0.4671 -11.4243,-9.759 -8.0273,-15.7111 0.2673,-0.4273 0.5565,-0.8395 0.8532,-1.2395 l -0.0197,-0.0164 0.002,-0.006 0.3845,-0.55 0.4188,-0.5362 0.4571,-0.5265 0.4963,-0.5148 0.5399,-0.4998 0.5768,-0.4908 0.6162,-0.4745 0.6591,-0.4637 0.6991,-0.4461 c 5.777,-3.3854 11.6493,-4.0548 17.7479,-1.9247 28.047,9.7911 24.9059,61.0615 21.5857,84.9092 l -0.7097,4.027 -0.8504,3.9076 -0.9963,3.771 -1.1484,3.6156 -1.3079,3.4425 -1.4733,3.2508 -1.6468,3.0412 -0.6938,1.0673 0.7,-0.6464 2.4141,-2.7082 2.3877,-3.1471 2.35,-3.5531 c 7.5606,-12.9025 23.2844,-36.8721 13.9745,-52.0264 l 0.0479,-0.035 c -1.5827,-2.9745 -4.1228,-4.4002 -6.4852,-3.4456 -1.3969,0.5691 -2.7298,1.9074 -2.3792,4.2786 l -1.1051,-0.3915 c -0.4239,-4.6393 3.6904,-6.6196 6.3401,-6.2361 2.1986,0.3134 4.2726,1.9534 5.7809,4.22 l 0.009,-0.006 c 0.088,0.14 0.1735,0.281 0.2575,0.4226 0.1024,0.1662 0.2021,0.3356 0.2982,0.5076 l -0.003,0.002 c 9.1123,16.2238 -6.2463,40.503 -14.2924,54.2327 l -2.4441,3.6961 -2.513,3.3114 -2.5827,2.8978 -1.0399,0.9601 2.1562,-1.3148 3.399,-2.6294 3.4376,-3.1858 3.4596,-3.704 3.4691,-4.1834 3.4662,-4.623 3.4536,-5.0234 3.4309,-5.3838 3.3996,-5.7053 3.3593,-5.9868 3.3114,-6.2299 3.2545,-6.4336 3.1902,-6.5986 3.1176,-6.7246 c 4.7381,-10.625 5.5813,-21.0081 5.2073,-35.483 z m 178.397,-66.9743 c 0.4877,1.1819 0.9144,2.3832 1.2724,3.601 3.461,11.7755 0.7421,24.9775 -7.7986,34.1097 -2.6062,2.7873 -5.836,5.0977 -9.6666,6.8006 -3.1174,1.386 -6.3795,2.333 -9.641,2.6852 -9.4464,1.0239 -18.5424,-2.0126 -23.62,-9.239 l 4.9697,-4.2153 7.6733,-6.3352 7.7383,-6.1951 7.7997,-6.0298 7.8555,-5.8376 7.9077,-5.6206 z m -50.9584,35.4609 c -0.8814,-1.7218 -1.5652,-3.632 -2.0158,-5.7322 -1.0019,-4.669 0.0121,-8.7532 2.7228,-12.8951 l 0.2314,-0.3288 0.2374,-0.3134 0.24,-0.3029 0.2489,-0.2878 0.2546,-0.2768 0.2639,-0.2624 0.2661,-0.2479 0.2736,-0.2388 0.2795,-0.2234 0.2902,-0.2125 0.2906,-0.1991 0.2984,-0.1852 0.3076,-0.1726 0.2405,-0.1237 0.0156,0.0259 c 0.1278,-0.0701 0.2606,-0.1455 0.3898,-0.215 l 0.066,-0.03 8e-4,-0.007 c 0.3268,-0.1767 0.6673,-0.3481 1.0163,-0.508 3.4191,-1.2674 7.2692,-0.2851 9.2549,2.931 2.8336,5.645 -3.8733,8.3157 -4.6779,5.1522 -0.0545,-1.0902 2.4207,-1.5933 2.5923,-1.072 -2.3759,-2.6398 -5.4342,0.5095 -3.1971,2.8602 1.5199,1.4388 3.32,1.4345 4.8131,0.6808 l -2.371,1.8982 -7.7045,6.3614 z"
     style="fill:#1b1918;fill-rule:evenodd;stroke:#000000;stroke-width:0.216;stroke-linecap:butt;stroke-linejoin:miter;stroke-dasharray:none"
     id="path26" />
  <path
     d="m 425.135,10.992583 c 2.5298,-1.8099995 5.5021,-2.7546995 8.9247,-0.143 -2.0656,-4.4761995 -7.4463,-3.4314995 -10.086,-1.5412995 -9.055,6.7142995 -9.6139,18.7041995 -18.5539,25.6596995 -2.5297,1.8101 -5.5021,2.7547 -8.9247,0.143 2.0656,4.4762 7.4463,3.4315 10.0861,1.5413 9.1418,-6.7675 9.5692,-18.6696 18.5538,-25.6597 z"
     style="fill:#1b1918;fill-rule:evenodd;stroke:#1b1918;stroke-width:0.216;stroke-linecap:butt;stroke-linejoin:miter;stroke-dasharray:none"
     id="path28" />
  <g
     id="Layer1002"
     transform="translate(-213.679,-78.012217)" />
  <path
     d="m 29.9231,178.09868 c 2.5297,-1.81 5.502,-2.7547 8.9247,-0.1429 -2.0657,-4.4763 -7.4463,-3.4315 -10.0861,-1.5413 -9.055,6.7143 -9.6139,18.7042 -18.5539,25.6597 -2.5297,1.81 -5.502,2.7547 -8.9247,0.1429 2.0657,4.4763 7.4464,3.4315 10.0861,1.5413 9.1418,-6.7674 9.5693,-18.6696 18.5539,-25.6597 z"
     style="fill:#1b1918;fill-rule:evenodd;stroke:#1b1918;stroke-width:0.216;stroke-linecap:butt;stroke-linejoin:miter;stroke-dasharray:none"
     id="path31" />
</svg>
